<?xml version="1.0" encoding="UTF-8"?>
<!-- Do not edit this file with editors other than draw.io -->
<!DOCTYPE svg PUBLIC "-//W3C//DTD SVG 1.1//EN" "http://www.w3.org/Graphics/SVG/1.1/DTD/svg11.dtd">
<svg xmlns="http://www.w3.org/2000/svg" style="background: transparent; background-color: transparent; color-scheme: light dark;" xmlns:xlink="http://www.w3.org/1999/xlink" version="1.1" width="151px" height="100px" viewBox="-0.5 -0.5 151 100" content="&lt;mxfile host=&quot;Electron&quot; agent=&quot;Mozilla/5.0 (Windows NT 10.0; Win64; x64) AppleWebKit/537.36 (KHTML, like Gecko) draw.io/28.1.2 Chrome/138.0.7204.243 Electron/37.4.0 Safari/537.36&quot; version=&quot;28.1.2&quot; scale=&quot;1&quot; border=&quot;0&quot;&gt;&#10;  &lt;diagram name=&quot;Page-1&quot; id=&quot;1cTA69GLtXyp2kLzP32z&quot;&gt;&#10;    &lt;mxGraphModel dx=&quot;272&quot; dy=&quot;219&quot; grid=&quot;1&quot; gridSize=&quot;10&quot; guides=&quot;1&quot; tooltips=&quot;1&quot; connect=&quot;1&quot; arrows=&quot;1&quot; fold=&quot;1&quot; page=&quot;1&quot; pageScale=&quot;1&quot; pageWidth=&quot;827&quot; pageHeight=&quot;1169&quot; math=&quot;0&quot; shadow=&quot;0&quot;&gt;&#10;      &lt;root&gt;&#10;        &lt;mxCell id=&quot;0&quot; /&gt;&#10;        &lt;mxCell id=&quot;1&quot; parent=&quot;0&quot; /&gt;&#10;        &lt;mxCell id=&quot;1yUMV6Pv7m1rKCGjduem-1&quot; value=&quot;&quot; style=&quot;verticalLabelPosition=bottom;html=1;verticalAlign=top;align=center;strokeColor=none;fillColor=#00BEF2;shape=mxgraph.azure.message;pointerEvents=1;&quot; vertex=&quot;1&quot; parent=&quot;1&quot;&gt;&#10;          &lt;mxGeometry x=&quot;290&quot; y=&quot;250&quot; width=&quot;30&quot; height=&quot;20&quot; as=&quot;geometry&quot; /&gt;&#10;        &lt;/mxCell&gt;&#10;        &lt;mxCell id=&quot;1yUMV6Pv7m1rKCGjduem-2&quot; value=&quot;&quot; style=&quot;points=[];aspect=fixed;html=1;align=center;shadow=0;dashed=0;fillColor=#FF6A00;strokeColor=none;shape=mxgraph.alibaba_cloud.directmail;&quot; vertex=&quot;1&quot; parent=&quot;1&quot;&gt;&#10;          &lt;mxGeometry x=&quot;240&quot; y=&quot;220&quot; width=&quot;150.86&quot; height=&quot;100&quot; as=&quot;geometry&quot; /&gt;&#10;        &lt;/mxCell&gt;&#10;      &lt;/root&gt;&#10;    &lt;/mxGraphModel&gt;&#10;  &lt;/diagram&gt;&#10;&lt;/mxfile&gt;&#10;"><defs/><g><g data-cell-id="0"><g data-cell-id="1"><g data-cell-id="1yUMV6Pv7m1rKCGjduem-1"><g><rect x="50" y="30" width="30" height="20" fill="none" stroke="none" pointer-events="all"/><path d="M 50.09 31.41 C 50.02 30.7 50.62 30.07 51.45 30 L 78.46 30 C 79.27 30.03 79.91 30.61 79.91 31.31 L 79.91 48.56 C 80 49.26 79.43 49.9 78.63 50 L 51.37 50 C 50.57 49.9 50 49.26 50.09 48.56 Z M 53.4 32.64 L 64.79 40.37 L 76.2 32.64 Z M 63.73 42.96 L 53.1 35.79 L 53.1 47.38 L 76.93 47.43 L 76.93 35.6 L 65.78 43.01 C 65.17 43.41 64.32 43.38 63.73 42.96 Z" fill-opacity="0.5" fill="#00bef2" stroke="none" pointer-events="all" style="fill: rgb(0, 190, 242);"/></g></g><g data-cell-id="1yUMV6Pv7m1rKCGjduem-2"><g><path d="M 65.09 0 C 51.21 0 39.4 8.21 33.88 20.05 C 32.24 19.45 30.43 19.19 28.71 19.19 C 19.22 19.19 11.47 26.88 11.47 36.47 C 11.47 38.38 11.81 40.19 12.41 41.83 C 5 46.15 0 54.11 0 63.27 C 0 77.01 11.12 88.25 24.91 88.25 L 77.07 88.42 L 77.59 80.73 L 24.83 80.73 C 15.35 80.73 7.59 72.95 7.59 63.44 C 7.59 57.3 10.78 51.77 16.21 48.57 C 21.47 45.55 21.81 44.94 19.66 39.5 C 19.31 38.55 19.14 37.51 19.14 36.56 C 19.14 31.29 23.45 26.97 28.71 26.97 C 28.71 26.97 31.21 26.79 33.88 27.83 C 38.28 29.56 38.79 27.92 40.86 23.34 C 45.26 13.83 54.74 7.69 65.09 7.69 C 78.88 7.69 90.26 18.15 91.55 31.98 C 91.98 37.42 91.98 37.42 97.76 38.81 C 102.07 39.67 106.03 41.83 109.14 45.03 L 117.33 43.04 C 113.02 36.91 106.55 32.67 99.22 31.29 C 97.59 13.83 83.02 0 65.09 0 Z M 150.86 39.15 L 59.91 60.5 L 76.81 76.84 L 141.64 44.08 L 83.36 80.64 L 82.85 99.48 L 91.55 90.75 L 100.77 100 Z" fill="#ff6a00" stroke="none" pointer-events="all" style="fill: rgb(255, 106, 0);"/></g></g></g></g></g></svg>